<svg width="512" height="512" viewBox="0 0 512 512" fill="none" xmlns="http://www.w3.org/2000/svg">
<g clip-path="url(#clip0_854_707)">
<rect width="512" height="512" fill="#141413"/>
<rect width="512" height="512" rx="201.143" fill="#141413"/>
<path d="M146.312 137.143C146.312 132.093 150.496 128 155.656 128H213.913C219.074 128 223.257 132.093 223.257 137.143V239.328C223.257 244.377 219.074 248.471 213.913 248.471H155.656C150.496 248.471 146.312 244.377 146.312 239.328V137.143Z" fill="white"/>
<path d="M146.312 272.674C146.312 267.625 150.496 263.531 155.656 263.531H213.913C219.074 263.531 223.257 267.625 223.257 272.674V374.859C223.257 379.908 219.074 384.002 213.913 384.002H155.656C150.496 384.002 146.312 379.908 146.312 374.859V272.674Z" fill="white"/>
<path d="M238.688 192.022C238.688 189.598 239.672 187.272 241.424 185.557L297.506 130.678C299.258 128.963 301.635 128 304.113 128H397.67C401.683 128 403.828 132.626 401.185 135.582L303.035 245.348C301.26 247.332 298.697 248.471 296.003 248.471H257.374C247.054 248.471 238.688 240.284 238.688 230.185V192.022Z" fill="white"/>
<path d="M238.688 305.501C238.688 307.577 239.41 309.591 240.735 311.212L297.438 380.57C299.211 382.739 301.895 384.002 304.733 384.002H397.67C401.683 384.002 403.828 379.376 401.185 376.42L303.035 266.653C301.26 264.669 298.697 263.531 296.003 263.531H257.374C247.054 263.531 238.688 271.718 238.688 281.817V305.501Z" fill="white"/>
</g>
<defs>
<clipPath id="clip0_854_707">
<rect width="512" height="512" fill="white"/>
</clipPath>
</defs>
</svg>
