<svg width="5870" height="1622" viewBox="0 0 5870 1622" fill="none" xmlns="http://www.w3.org/2000/svg">
<path d="M2763.31 803.835L3090.96 1273.75H2883.11C2883.11 1273.75 2723.91 1001.15 2577.94 918.533C2537.67 895.738 2491.05 897.216 2491.05 943.438V1273.75H2317.25V356.166H2491.05V748.919C2527.42 748.919 2548.98 752.395 2611.8 701.917C2741.52 597.684 2802.94 356.166 2802.94 356.166H3057.59L2763.31 803.835Z" fill="#141413"/>
<path d="M3270.25 1028.37C3271.64 1054.32 3278.59 1077.49 3291.1 1097.88C3303.61 1118.27 3321.69 1134.26 3345.32 1145.84C3369.42 1157.43 3398.15 1163.22 3431.52 1163.22C3461.64 1163.22 3488.06 1159.51 3510.76 1152.1C3533.94 1144.68 3553.4 1135.65 3569.16 1124.99C3585.38 1113.87 3597.43 1103.21 3605.3 1093.01L3678.29 1201.45C3665.32 1217.67 3647.94 1232.74 3626.16 1246.64C3604.84 1260.08 3577.5 1270.74 3544.13 1278.61C3511.23 1286.96 3469.98 1291.13 3420.4 1291.13C3357.83 1291.13 3302.92 1278.85 3255.65 1254.29C3208.38 1229.72 3171.54 1194.27 3145.12 1147.93C3118.71 1101.59 3105.5 1046.44 3105.5 982.486C3105.5 926.875 3117.32 876.825 3140.95 832.336C3164.59 787.384 3198.88 751.932 3243.83 725.98C3289.25 700.028 3343.7 687.052 3407.19 687.052C3466.97 687.052 3518.64 698.638 3562.2 721.809C3606.23 744.517 3640.29 777.884 3664.39 821.909C3688.49 865.934 3700.54 919.692 3700.54 983.181C3700.54 986.888 3700.31 994.535 3699.84 1006.12C3699.84 1017.24 3699.38 1024.66 3698.45 1028.37H3270.25ZM3535.09 919.228C3534.63 904.399 3530 888.411 3521.19 871.264C3512.85 854.117 3499.64 839.519 3481.57 827.47C3463.5 815.421 3439.4 809.396 3409.27 809.396C3379.15 809.396 3354.36 815.189 3334.89 826.775C3315.89 838.361 3301.53 852.727 3291.8 869.873C3282.06 886.557 3276.5 903.008 3275.11 919.228H3535.09Z" fill="#141413"/>
<path d="M3997.72 1274.44H3820.46V317.934H3997.72V1274.44Z" fill="#141413"/>
<path d="M4094.11 703.735H4283.18L4439.59 1113.17L4596 703.735H4784.38L4583.51 1178.99C4559.06 1236.84 4502.34 1274.44 4439.53 1274.44C4376.78 1274.44 4320.11 1236.91 4295.61 1179.14L4094.11 703.735Z" fill="#141413"/>
<path d="M4890.52 1274.44V703.735H5066.39V1274.44H4890.52ZM4980.88 556.366C4951.69 556.366 4926.9 546.171 4906.5 525.78C4886.58 505.389 4876.61 481.059 4876.61 452.79C4876.61 424.521 4886.81 399.96 4907.2 379.106C4927.59 358.252 4952.15 347.825 4980.88 347.825C4999.89 347.825 5017.26 352.691 5033.02 362.422C5048.78 371.691 5061.52 384.203 5071.25 399.96C5080.98 415.716 5085.85 433.327 5085.85 452.79C5085.85 481.059 5075.42 505.389 5054.57 525.78C5034.18 546.171 5009.62 556.366 4980.88 556.366Z" fill="#141413"/>
<path d="M5870 1563.62C5774.02 1563.62 5695.52 1485.82 5695.52 1389.84V1175.04C5692.28 1185.7 5682.08 1200.3 5664.93 1218.83C5647.79 1237.37 5624.38 1254.05 5594.72 1268.88C5565.53 1283.71 5530.08 1291.13 5488.37 1291.13C5434.15 1291.13 5386.18 1278.15 5344.47 1252.2C5303.23 1225.78 5271.02 1189.87 5247.85 1144.45C5224.68 1098.57 5213.09 1046.9 5213.09 989.437C5213.09 931.972 5223.98 880.532 5245.76 835.117C5268.01 789.237 5299.29 753.09 5339.61 726.675C5379.93 700.26 5427.2 687.052 5481.42 687.052C5520.34 687.052 5554.64 693.308 5584.3 705.821C5613.96 718.333 5638.05 733.163 5656.59 750.31C5675.59 767.456 5687.87 782.75 5693.43 796.189V703.735H5870V1563.62ZM5537.03 1150.71C5566.69 1150.71 5593.1 1143.99 5616.27 1130.55C5639.91 1116.65 5658.68 1097.65 5672.58 1073.55C5686.48 1048.99 5693.43 1020.95 5693.43 989.437C5693.43 957.924 5686.48 930.119 5672.58 906.021C5658.68 881.459 5639.91 862.227 5616.27 848.324C5593.1 834.421 5566.69 827.47 5537.03 827.47C5509.69 827.47 5484.43 834.421 5461.26 848.324C5438.55 861.764 5420.24 880.764 5406.34 905.326C5392.9 929.424 5386.18 957.461 5386.18 989.437C5386.18 1021.41 5392.9 1049.68 5406.34 1074.24C5420.24 1098.34 5438.55 1117.11 5461.26 1130.55C5484.43 1143.99 5509.69 1150.71 5537.03 1150.71Z" fill="#141413"/>
<g clip-path="url(#clip0_1254_412)">
<path d="M810.995 0C972.523 0 1053.29 0.000284665 1120.23 14.5625C1364 67.591 1554.4 257.993 1607.43 501.761C1621.99 568.702 1621.99 649.467 1621.99 810.995C1621.99 972.523 1621.99 1053.29 1607.43 1120.23C1554.4 1364 1364 1554.4 1120.23 1607.43C1053.29 1621.99 972.523 1621.99 810.995 1621.99C649.467 1621.99 568.702 1621.99 501.761 1607.43C257.993 1554.4 67.591 1364 14.5625 1120.23C0.000284665 1053.29 0 972.523 0 810.995C0 649.467 0.000218224 568.702 14.5625 501.761C67.5911 257.993 257.993 67.5911 501.761 14.5625C568.702 0.000218224 649.467 0 810.995 0ZM493.109 834.854C476.762 834.854 463.511 847.822 463.511 863.818V1187.53C463.511 1203.53 476.762 1216.5 493.109 1216.5H677.667C694.014 1216.5 707.266 1203.53 707.266 1187.53V863.818C707.266 847.822 694.014 834.855 677.667 834.854H493.109ZM815.347 834.854C782.653 834.855 756.149 860.79 756.149 892.782V967.811C756.149 974.387 758.437 980.769 762.636 985.904L942.267 1205.63C947.884 1212.5 956.388 1216.5 965.38 1216.5H1259.8C1272.51 1216.5 1279.31 1201.84 1270.93 1192.48L959.998 844.745C954.378 838.459 946.258 834.855 937.723 834.854H815.347ZM493.109 405.498C476.762 405.498 463.511 418.466 463.511 434.462V758.179C463.511 774.175 476.763 787.143 493.109 787.143H677.667C694.014 787.142 707.265 774.175 707.266 758.179V434.462C707.266 418.466 694.014 405.498 677.667 405.498H493.109ZM963.414 405.498C955.564 405.498 948.035 408.55 942.484 413.981L764.818 587.837C759.268 593.269 756.149 600.636 756.149 608.317V729.214C756.149 761.207 782.653 787.142 815.347 787.143H937.723C946.258 787.143 954.378 783.537 959.998 777.251L1270.93 429.517C1279.31 420.153 1272.51 405.498 1259.8 405.498H963.414Z" fill="#141413"/>
</g>
<defs>
<clipPath id="clip0_1254_412">
<rect width="1621.99" height="1621.99" rx="637.21" fill="white"/>
</clipPath>
</defs>
</svg>
